<svg xmlns="http://www.w3.org/2000/svg" viewBox="0 0 64 64">
  <rect width="64" height="64" rx="20" fill="#ebf7f1" />
  <circle cx="32" cy="32" r="20" fill="#c6eddc" />
  <circle cx="32" cy="32" r="13" fill="#ffffff" opacity="0.95" />
  <path d="M32 16c4 0 8 2 11 4 3 3 5 7 5 12 0 7-4 13-10 17l-3-6c4-2 7-6 7-11 0-3-1-5-3-7-2-2-4-3-7-3s-5 1-7 3c-2 2-3 4-3 7 0 5 3 9 7 11l-3 6c-6-3-10-10-10-17 0-5 2-9 5-12 3-2 7-4 11-4z" fill="#58ab8b"/>
  <path d="m27 33 4 4 8-10" fill="none" stroke="#337d67" stroke-linecap="round" stroke-linejoin="round" stroke-width="4"/>
</svg>
