<svg xmlns="http://www.w3.org/2000/svg" viewBox="0 0 192 192">
  <rect width="192" height="192" rx="48" fill="#e5f7ef" />
  <circle cx="96" cy="96" r="58" fill="#bcebd8" />
  <circle cx="96" cy="96" r="40" fill="#ffffff" opacity="0.92" />
  <path d="M96 53c12 0 22 4 31 12 9 9 13 19 13 31 0 19-11 36-28 45l-6-13c12-6 20-19 20-32 0-8-3-16-9-22-6-5-13-8-21-8s-16 3-22 8c-6 6-9 14-9 22 0 14 8 26 20 33l-6 12c-17-8-28-25-28-45 0-12 4-22 13-31 8-8 19-12 32-12z" fill="#5bb190"/>
  <path d="m82 99 11 11 22-25" fill="none" stroke="#2d7f69" stroke-linecap="round" stroke-linejoin="round" stroke-width="10"/>
</svg>
